<?xml version="1.0" standalone="no"?>
<!DOCTYPE svg PUBLIC "-//W3C//DTD SVG 20010904//EN"
 "http://www.w3.org/TR/2001/REC-SVG-20010904/DTD/svg10.dtd">
<svg version="1.0" xmlns="http://www.w3.org/2000/svg"
 width="100.000000pt" height="100.000000pt" viewBox="0 0 100.000000 100.000000"
 preserveAspectRatio="xMidYMid meet">

<g transform="translate(0.000000,100.000000) scale(0.100000,-0.100000)"
fill="#000000" stroke="none">
<path d="M490 737 c-303 -164 -485 -268 -485 -277 0 -10 44 -29 140 -61 139
-45 140 -46 138 -75 -2 -16 -8 -78 -13 -137 -10 -105 -9 -127 10 -127 5 0 49
45 96 99 l88 100 138 -131 c83 -78 143 -127 148 -122 13 13 252 973 245 985
-4 5 -9 9 -13 9 -4 0 -225 -118 -492 -263z m350 -235 c-59 -238 -110 -435
-112 -437 -2 -3 -56 48 -120 113 l-116 117 174 239 c96 131 174 245 174 252 0
8 -6 14 -13 14 -8 0 -124 -89 -259 -198 -134 -109 -249 -202 -256 -205 -15
-10 -237 62 -226 73 11 10 858 469 861 467 1 -1 -47 -197 -107 -435z m-147
136 c-6 -7 -69 -94 -141 -193 -73 -99 -157 -207 -187 -240 l-56 -60 6 90 c3
50 8 98 11 107 4 15 357 308 371 308 3 0 1 -6 -4 -12z"/>
</g>
</svg>
