<?xml version="1.0" encoding="UTF-8"?>
<!DOCTYPE svg PUBLIC "-//W3C//DTD SVG 1.1//EN" "http://www.w3.org/Graphics/SVG/1.1/DTD/svg11.dtd">
<svg xmlns="http://www.w3.org/2000/svg" version="1.1" width="48px" height="48px" style="shape-rendering:geometricPrecision; text-rendering:geometricPrecision; image-rendering:optimizeQuality; fill-rule:evenodd; clip-rule:evenodd" xmlns:xlink="http://www.w3.org/1999/xlink">
<g><path style="opacity:0.932" fill="#34c0f0" d="M 20.5,34.5 C 26.4062,26.8038 31.5728,18.8038 36,10.5C 28.0118,15.6634 20.1785,20.9967 12.5,26.5C 9.86971,24.3719 7.36971,22.0386 5,19.5C 4.31621,18.2161 4.48288,17.0495 5.5,16C 17.7254,11.646 30.0587,7.81265 42.5,4.5C 39.1873,16.9413 35.354,29.2746 31,41.5C 29.9505,42.5171 28.7839,42.6838 27.5,42C 24.9614,39.6303 22.6281,37.1303 20.5,34.5 Z"/></g>
<g><path style="opacity:1" fill="#1c9ee2" d="M 20.5,34.5 C 17.8333,34.5 15.1667,34.5 12.5,34.5C 12.5,31.8333 12.5,29.1667 12.5,26.5C 20.1785,20.9967 28.0118,15.6634 36,10.5C 31.5728,18.8038 26.4062,26.8038 20.5,34.5 Z"/></g>
</svg>
